<svg id="Layer_1" data-name="Layer 1" xmlns="http://www.w3.org/2000/svg" viewBox="0 0 942.25 450.25"><defs><style>.cls-1{fill:#fff;}</style></defs><title>jb_logo-01</title><path class="cls-1" d="M87.22,368Q82.9,469.34,70.33,570.11c-1.25,10,5.65,23.26,12.45,30,7.37,7.37,19.47,12.92,30.05,12.45,11-.49,22.39-4.1,30.06-12.45l6.64-8.6a42.21,42.21,0,0,0,5.8-21.45Q167.89,469.43,172.22,368c.95-22.24-20.22-43.5-42.5-42.5-23.84,1.07-41.48,18.67-42.5,42.5Z" transform="translate(-66.09 -324.93)"/><path class="cls-1" d="M126.43,377c17.18-.11,34.34-1.25,51.52-1,4.32.05,8.63.18,12.93.44q3.19.18,6.37.47l3.15.31,1.27.13c-4.67-.48,2.53.47,3.46.65,2,.37,3.94.79,5.9,1.27,4,1,7.86,2.72,11.85,3.71-.4-.1-5.86-2.77-2.13-.87.88.44,1.78.85,2.66,1.3q2.68,1.36,5.24,3c.85.53,1.68,1.11,2.52,1.66,2.42,1.57-.07,1.39-1.54-1.28.86,1.56,3.64,3.18,4.91,4.53.73.77,2.69,3.39.37.16s-.7-1-.28-.29,1,1.66,1.47,2.4c2.19,3.11-.7-1.6-.8-2.32a15.94,15.94,0,0,0,.85,2.62c1.71,4.24-.86-2.9-.18-2.69a14.74,14.74,0,0,1,.09,2.83c-.15,2.1-.1,1.92.17-.54s.36-2.64-.07-.61a17.52,17.52,0,0,0-.85,2.64c.1-.72,3-5.41.8-2.32-.52.74-1,1.62-1.47,2.38-1.23,2-2.26,1.2,1.4-1.77-1.26,1-2.31,2.55-3.49,3.68-1.56,1.49-3.63,2.76-5,4.36,3.36-3.81,3.34-2.52,1.59-1.31-.82.56-1.62,1.14-2.44,1.7-1.72,1.17-3.48,2.3-5.24,3.43q-7.11,4.56-14.34,9-29.69,18.12-60.91,33.51C134.19,454,129.92,472,137,483c7.91,12.27,22.07,15.49,34.89,9.15q31.17-15.42,60.91-33.51c20.57-12.55,43.25-25.59,51.67-49.6,9.42-26.85-7.52-52.22-29.47-66.3-18.53-11.9-40.94-15.77-62.54-17.21-22-1.47-44,.35-66,.49-13.34.08-26.12,11.67-25.5,25.5s11.2,25.58,25.5,25.5Z" transform="translate(-66.09 -324.93)"/><path class="cls-1" d="M103.67,617.51c26.74,1.32,53.25,5.4,80,7,29.15,1.72,60.22.79,87.94-9.23a149.92,149.92,0,0,0,46.78-26.83c18-15.12,31.12-37.94,23.94-62-9.23-30.95-42.37-45-70.45-54a358.91,358.91,0,0,0-111-16.91c-17.78.08-34.83,15.58-34,34s14.94,34.08,34,34a347.14,347.14,0,0,1,47.47,2.92l-9-1.22c24.12,3.37,48.7,9.49,71.26,18.9l-8.12-3.43a92.74,92.74,0,0,1,19.06,10.47l-6.88-5.32a42,42,0,0,1,7.22,6.95l-5.32-6.88a26,26,0,0,1,3.19,5.49l-3.43-8.13a21.64,21.64,0,0,1,1.12,4.25l-1.21-9a21.28,21.28,0,0,1,0,4l1.22-9a25.46,25.46,0,0,1-1.17,4.46l3.43-8.12a34.55,34.55,0,0,1-4,6.81l5.31-6.88A84.65,84.65,0,0,1,266.94,543l6.88-5.32a108.33,108.33,0,0,1-22.71,13.17l8.13-3.42a139.75,139.75,0,0,1-34.57,9.11l9-1.21c-43.43,5.7-86.73-3.7-130-5.85-17.79-.89-34.8,16.27-34,34,.86,19.17,14.94,33,34,34Z" transform="translate(-66.09 -324.93)"/><path class="cls-1" d="M298.66,576.45c1.32,0,3.93.39-1.53-.32-4.54-.59-10.11-2.69-13.11-6.35l-6.56-11.25c0-.07,2.63-19,2.43-18.62-1,2.11,5-6.12,3.28-4.31a14.05,14.05,0,0,1-1.07,1c-.77.67,6.45-4.68,3.06-2.42-.62.42-1.23.86-1.85,1.29-3.78,2.62-7.8,5.16-11,8.47-9.75,10.1-11.43,27.71-.42,37.82,7.72,7.09,16.91,8.14,26.91,8.09,16.32-.09,33.46-.87,49-6.16,16.6-5.64,31.65-15.38,42.54-29.23,13.21-16.8,20.95-35.95,21.83-57.45h-51c-.67,23.73,1.41,49.76,20.14,66.88a70,70,0,0,0,32.69,17c13.45,2.76,26.22,1.82,39.73.8,13.27-1,26.15-11,25.5-25.5-.58-13-11.25-26.57-25.5-25.5-5.06.38-10.11.9-15.18,1.14-2.52.12-5.05.19-7.58.11-1.26,0-2.52-.11-3.78-.22l3,.47c-1.63.32-4.71-.92-6.31-1.37-1-.27-1.94-.57-2.89-.9q-3.81-1.43,1.87.89c-1-1.07-4-2.16-5.3-2.85-4.25-2.22,4.29,4-.19-.09-.56-.5-1.1-1-1.61-1.56q-2.65-3,1.09,1.72a47.72,47.72,0,0,0-3.23-5.37q2.22,5.61.77,1.8c-.35-1-.66-2-.94-3-.49-1.76-.79-3.55-1.19-5.34q-.51-3,.34,2.88c-.12-1.05-.22-2.1-.3-3.16-.17-2.11-.25-4.23-.29-6.34-.08-4.16,0-8.32.16-12.48.37-13.35-12-26.11-25.5-25.5-14.28.64-24.92,11.2-25.5,25.5-.05,1.27-.18,2.54-.23,3.8-.12,3.23,1.11-6,.22-1.5-.49,2.49-1,5-1.73,7.4-.43,1.47-.95,2.89-1.44,4.33-1.46,4.28,1.95-4,.53-1.17-1.15,2.28-2.23,4.55-3.54,6.74-.65,1.1-1.32,2.17-2,3.23-.54.81-3.41,4.28-.68,1.12s-.28.27-.89,1c-.84,1-1.7,1.89-2.58,2.8-1.93,2-4.34,3.61-6.18,5.63.85-.93,4.34-3.07,1.4-1.17-1.39.9-2.73,1.81-4.16,2.63-1.17.68-2.36,1.31-3.57,1.9-.48.25-1,.48-1.45.7q-2.64,1.2,2.41-1c-.83-.43-6.45,2.18-7.58,2.49-2.58.7-5.19,1.27-7.82,1.73-.55.1-5.91.9-1.38.28,4.38-.61-.46,0-1.43.1-5.66.53-11.34.73-17,.8-2.69,0-5.38.07-8.07,0a8.25,8.25,0,0,0-2.16,0l5.78.75a24.37,24.37,0,0,1,10.22,6l6.56,11.26q-7.46,27-2.35,18.49-5.62,6.72-3.37,4.44c.33-.36.73-.63,1.08-1-4.39,4.19-4.83,3.63-1.49,1.31,3.62-2.51,7.57-4.94,10.67-8,7-7.06,10.5-17.16,7.73-27-3.62-12.86-15.41-19.26-28-19.52-13.35-.27-26.11,11.93-25.5,25.5.63,14,11.2,25.21,25.5,25.5Z" transform="translate(-66.09 -324.93)"/><path class="cls-1" d="M390.81,457.28c18.31,0,35.85-16.1,35-35s-15.38-35-35-35c-18.3,0-35.84,16.09-35,35s15.38,35,35,35Z" transform="translate(-66.09 -324.93)"/><path class="cls-1" d="M474.42,454.53c1.34,0,8.12-.45,8.84.53q-5.42-.76-2.48-.28c.57.09,1.13.19,1.7.31,1.41.26,2.81.56,4.21.89a162,162,0,0,1,16.44,5c11,3.86,21.84,8.45,33.3,10.83,27.08,5.63,54.17,3.29,81.17-1.55,9.78-1.75,17-12.09,18.26-21.2,1.26-9.35-3.06-21.06-12.17-25.4-12.52-6-24.9-8.26-38.55-10-5.08-.66-10.17-1.18-15.26-1.72-1.61-.17-6.66.13-7.89-.9.25.21,6.42.95,2.78.35-1.93-.31-3.86-.59-5.79-.88-28-4.29-56.18-8.48-84.56-8.58-13.34,0-26.12,11.76-25.5,25.5s11.2,25.45,25.5,25.5a369.05,369.05,0,0,1,38,2.25c2.92.32,5.83.66,8.75,1,.44.05,5.63.4,5.82.74-.28-.51-5.13-.71-1-.12q9.67,1.38,19.35,2.86c11.42,1.75,22.86,3,34.33,4.32,1.28.14,2.57.31,3.85.46,3.26.38-6-1-1.42-.17,2.49.43,5,.81,7.45,1.33,2.12.45,4.23,1,6.31,1.58,1.1.33,2.18.73,3.28,1.06,4.35,1.32-5.53-2.57-1.27-.54l6.09-46.6c-2.9.52-5.81,1-8.72,1.46-.88.14-6.08.89-1.92.3s-1.57.16-1.95.2c-5.67.63-11.37,1.05-17.07,1.2a154,154,0,0,1-17-.48c-.43,0-6.18-.83-1.94-.13s-1-.19-1.91-.34q-4.38-.76-8.69-1.88c-10.7-2.79-20.9-7.22-31.36-10.74a127.84,127.84,0,0,0-39-7.12c-13.34-.16-26.11,11.85-25.5,25.5.62,14,11.2,25.33,25.5,25.5Z" transform="translate(-66.09 -324.93)"/><path class="cls-1" d="M482.37,575.74c55.5-30.46,107.3-68.41,151.56-113.78,9.33-9.56,10.24-26.67,0-36.06-10.07-9.25-26.11-10.2-36.06,0q-15.9,16.31-33,31.31-8.57,7.49-17.4,14.61l-4.09,3.28c-.55.43-6.16,4.89-2.92,2.31s-2.4,1.82-3,2.25l-4.19,3.14a667.15,667.15,0,0,1-76.62,48.91c-11.7,6.42-16.47,23.52-9.15,34.88,7.65,11.87,22.37,16,34.89,9.15Z" transform="translate(-66.09 -324.93)"/><path class="cls-1" d="M442.94,563.54a105.4,105.4,0,0,1,13.88-7.62c4.64-2.16,9.27-4,13.9-5.64a192.34,192.34,0,0,1,27.83-7.49,224.43,224.43,0,0,1,27.84-3.52,120.11,120.11,0,0,1,13.94-.25,93.77,93.77,0,0,1,13.94,1.78c9.31,1.82,18.62,5.24,27.93,8.34s18.61,5.72,27.91,6.71a98.48,98.48,0,0,0,13.94.53A128,128,0,0,0,638,555.25a139.19,139.19,0,0,0,13.92-2.66c4.64-1.11,9.28-2.48,13.91-3.87,9.27-2.82,18.55-5.83,27.82-7.9,4.64-1.06,9.28-1.93,13.92-2.58l13.93-1.79c9.28-1.19,18.56-2.46,27.84-3.29a212.7,212.7,0,0,1,27.87-.78,268.72,268.72,0,0,1,27.89,2.69c9.29,1.37,18.6,3.1,27.9,5.3a275.3,275.3,0,0,1,27.92,8.13c4.66,1.67,9.31,3.4,14,5.43a137.06,137.06,0,0,1,14,6.82l0,6a138.07,138.07,0,0,1-13.89,7c-4.63,2.07-9.26,3.87-13.9,5.59a278.16,278.16,0,0,1-27.81,8.49c-9.28,2.31-18.56,4.16-27.84,5.64a268.43,268.43,0,0,1-27.85,3,210.8,210.8,0,0,1-27.87-.43c-9.3-.72-18.59-1.87-27.89-2.94l-14-1.62c-4.64-.59-9.29-1.4-13.94-2.4-9.31-2-18.62-4.85-27.92-7.56-4.66-1.32-9.31-2.63-14-3.69a136,136,0,0,0-13.95-2.48,125.72,125.72,0,0,0-13.94-1,99.93,99.93,0,0,0-13.93.7c-9.28,1.11-18.56,3.78-27.83,7.06s-18.54,6.75-27.81,8.69a92.44,92.44,0,0,1-13.93,2,117.72,117.72,0,0,1-13.93-.08,226.32,226.32,0,0,1-27.89-3.16,194.51,194.51,0,0,1-27.91-7.14c-4.66-1.59-9.32-3.37-14-5.47a106.15,106.15,0,0,1-14-7.45Z" transform="translate(-66.09 -324.93)"/><path class="cls-1" d="M659.13,433.79a69.76,69.76,0,0,1,8.81,2.66c.75.28,1.49.59,2.25.87,4,1.52-6.58-2.88-3.23-1.36,1.27.57,2.55,1.13,3.82,1.72,7.87,3.62,15.71,7.29,23.82,10.38,22.8,8.68,48,10.83,72.19,11.1l-12.88-47.52c-55.1,33.44-101.63,78-140.55,129.16-3.72,4.9-4.11,14-2.57,19.65,1.63,5.91,6.21,12.32,11.72,15.24,5.92,3.12,13.09,4.69,19.65,2.57,6.74-2.18,11-6.13,15.24-11.72l2.15-2.82c-2,2.59-2.43,3.15-1.27,1.67s2.55-3.24,3.84-4.84q3.3-4.12,6.68-8.17,7.29-8.71,15-17.09,14.81-16.18,31-31,7.83-7.14,16-13.94,4.2-3.49,8.49-6.9c.65-.53,1.31-1.05,2-1.56,2.16-1.69,1.76-1.38-1.18.9a27.57,27.57,0,0,1,4-3q17.22-12.9,35.65-24.07c9.3-5.64,15.21-18,11.71-28.79s-13-18.6-24.58-18.72c-7.47-.09-14.94-.35-22.38-1-2.93-.25-5.85-.71-8.78-.93,9.17.69-.75-.18-3-.6a139.71,139.71,0,0,1-25.3-7.06l-2.36-.95c-3.63-1.4,6.41,2.8,3.08,1.31-1.54-.69-3.08-1.36-4.61-2.06-2.74-1.26-5.46-2.57-8.21-3.82-7.29-3.31-14.72-6.62-22.56-8.44-13-3-28.22,4-31.36,17.81-3,13,3.91,28.16,17.81,31.37Z" transform="translate(-66.09 -324.93)"/><path class="cls-1" d="M801.71,443.29c-3.45,24.28-8.66,48.88-5.36,73.43,3,22.76,14.79,45.07,35.52,56.39,38,20.76,96.06,7.6,110-36.78,4-12.8,3.92-27.43,5.09-40.74l3.47-39.73c1-11.76-11.08-23-22.5-22.5-13.07.59-21.4,9.91-22.5,22.5-1.73,19.77-3.37,39.55-5.19,59.32-.1,1.14-.22,2.28-.33,3.42-.33,3.69-.15-.88.12-.88,0,0-1.26,5.66-1.31,5.83-.28,1-1.73,4.35-.16,1,1.45-3.11.39-.83,0-.25-.44.76-.81,1.56-1.26,2.31s-2.84,3.82-.46,1-.92,1-1.64,1.69-4.57,3.84-1.66,1.74c3.14-2.27-1.31.83-2.07,1.3-1.73,1.08-3.55,1.9-5.33,2.88-2.08,1.15,2.31-.92,2.26-.91a25.75,25.75,0,0,0-2.57,1c-1.51.52-3,1-4.6,1.38s-3.14.7-4.72,1c-3.79.78,1.49-.32,1.9-.22-.93-.24-2.46.24-3.42.29-1.59.09-3.18.13-4.77.1-1.41,0-5-.9-6.21-.4.16-.07,4.42.81,1.94.23-1-.24-2.13-.39-3.19-.63a54.11,54.11,0,0,1-6.24-1.78c-.79-.27-4.13-1.16-1.07-.36,2.65.69.49.18-.23-.24s-4.93-3.49-5.48-3.39c.32-.06,3.07,2.79,1.5,1.06-.67-.75-1.5-1.38-2.21-2.11-.53-.54-1-1.11-1.56-1.67-3.34-3.5,1.61,2.72.24.36-.9-1.55-2-3-2.83-4.55-.49-.9-.91-1.83-1.4-2.74-1.25-2.31.59-1.33.43,1.13.09-1.33-1.36-3.89-1.73-5.14-.65-2.25-1.12-4.51-1.61-6.79-.15-.68-.38-3.3-.08-.06.37,4-.14-1.63-.2-2.44-.19-2.59-.27-5.2-.27-7.8a156.26,156.26,0,0,1,1.06-16.61c.14-1.3.32-2.6.46-3.9.4-3.65-.78,5.42.1-.84.35-2.51.71-5,1.07-7.52l2.32-16.38c.89-6.25,1.06-11.65-2.27-17.34-2.73-4.66-8.08-9.11-13.45-10.34-10.62-2.42-25.91,3.26-27.67,15.72Z" transform="translate(-66.09 -324.93)"/><path class="cls-1" d="M97.15,611.05c41.2,5.87,82.53,9.84,124.16,10.55,39.31.67,79.51-.07,118.32-6.92,20.55-3.64,41.71-11,58.68-23.38,9.21-6.7,16.4-14,19.53-25.4,2.8-10.17,1.53-23.72-4.29-32.75s-14.56-17.06-25.4-19.53c-10.5-2.39-23.65-2.33-32.74,4.28A98.79,98.79,0,0,1,337,528.41l10.15-4.29c-12.26,5.15-25.19,8-38.32,9.88l11.3-1.52c-32.89,4.37-66.63,4.71-99.75,4.1a912.78,912.78,0,0,1-104.08-7.92l11.3,1.51q-3.9-.52-7.8-1.08a32.17,32.17,0,0,0-17-.76,31.61,31.61,0,0,0-15.8,5c-8.82,5.16-17.23,15.27-19.53,25.4-2.48,10.88-2,23.09,4.28,32.75,5.56,8.62,14.76,18,25.4,19.53Z" transform="translate(-66.09 -324.93)"/><path class="cls-1" d="M397.79,597.4c19.38,4.49,39.26,7,59,9.15,23.14,2.58,46.38,4.32,69.63,5.63C575.19,615,624.13,616,673,614.78c20.74-.53,41.56-1.36,62.18-3.85,7-.84,12.84-2.28,18-7.47,4.42-4.42,7.75-11.68,7.47-18-.56-12.44-11.32-27.21-25.5-25.5-40.6,4.9-82,4.66-122.83,4.17-48.6-.59-97.31-2.62-145.69-7.51q-8.83-.89-17.66-2c-2.68-.33-5.37-.78-8.06-1-.82-.08,6.87.94,4.18.55l-2.57-.35-3.53-.51c-9.26-1.38-18.51-3-27.64-5.08-13-3-28.22,4-31.37,17.81-3,13,3.92,28.15,17.81,31.36Z" transform="translate(-66.09 -324.93)"/><path class="cls-1" d="M633.27,599.75c39.1,11.21,79.87,10.82,120.15,11.42,29.94.45,60.16.82,89.92-2.92,17.06-2.14,34.64-4.7,49.81-13.42,11.57-6.65,16.57-23.37,9.15-34.88-7.53-11.68-22.51-16.27-34.89-9.15-1,.58-2.07,1.08-3.1,1.63-4,2.17,6.7-2.49,2.2-.91-2.68.94-5.33,1.84-8.07,2.58s-5.79,1.42-8.72,2-7.11,2-10.18,1.68c-.06,0,7.21-.9,3.2-.44l-2.42.29c-1.65.19-3.3.37-5,.53q-5.75.57-11.5,1c-7.69.52-15.39.84-23.1,1-28.73.74-57.64.3-86.36-.51-11.93-.34-23.86-1-35.71-2.39-1.2-.14-2.54-.21-3.73-.45,6.89,1.43.62.05-.66-.15-3.09-.49-6.17-1-9.24-1.64-6.14-1.2-12.22-2.69-18.24-4.42-12.82-3.67-28.33,4.48-31.37,17.81-3.1,13.6,4.09,27.44,17.81,31.37Z" transform="translate(-66.09 -324.93)"/><path class="cls-1" d="M809.46,439.63c-3.52,17.86-2.8,35.44-1.16,53.45,1.68,18.45,5.5,35.14,17,50,19.15,24.78,53.63,36.87,83.9,27.69,12.75-3.87,22.13-18,17.81-31.37-4.16-12.87-17.69-22-31.36-17.81-1.28.39-2.55.75-3.86,1-2.49.57-5.56-.31,1.56,0-2.17-.08-4.4.32-6.59.27-1.26,0-2.71-.33-4-.26,6.12-.36,4.46.7,1.55.1a56.65,56.65,0,0,1-6.41-1.73c-2.43-.81-4.4-2.73,1.13.65-1.1-.67-2.45-1.14-3.59-1.75-2-1-3.8-2.28-5.69-3.45-4.07-2.52,4.24,3.77.94.76-1-.9-2-1.74-3-2.67-.79-.77-1.52-1.6-2.29-2.39-3.77-3.87,2,3.14.66,1.06s-2.7-4-3.83-6.17c-.47-.91-2.25-4.68-.38-.57,2,4.32-.16-.89-.47-1.95-.87-2.95-.89-6.64-2-9.44l.43,3.29c-.14-1.17-.26-2.34-.38-3.51-.14-1.47-.26-2.94-.38-4.4-.57-6.86-1.13-13.72-1.3-20.6-.09-3.45-.07-6.92.12-10.37,0-.87.82-4.89.46-5.63l-.4,3.05c.19-1.24.42-2.47.68-3.7,2.57-13.05-3.7-28.16-17.81-31.37-12.64-2.88-28.61,3.81-31.37,17.81Z" transform="translate(-66.09 -324.93)"/><path class="cls-1" d="M799.65,434.06c-8.38,37.07,1.42,73.37,13.11,108.53,4.2,12.63,17.78,22.2,31.36,17.81,12.59-4.08,22.32-17.82,17.81-31.37-4.95-14.91-9.85-29.91-12.84-45.35-.35-1.84-.66-3.68-1-5.53-1.12-6.32.53,5.77-.1-.6-.37-3.68-.68-7.36-.78-11.06a109.7,109.7,0,0,1,.26-11c.1-1.23.21-2.45.35-3.67-.49,3.42-.59,4.15-.28,2.2.44-2.12.79-4.26,1.27-6.38,2.94-13-4-28.21-17.81-31.36-12.95-3-28.22,3.89-31.37,17.81Z" transform="translate(-66.09 -324.93)"/><path class="cls-1" d="M835.93,453.72q3.24-2.24-3,1-15.58-1.28-8.94.31l-3.86-1.57q-5.07-4.35-2.28-1.65a10.83,10.83,0,0,1-3.24-4.66c-.79-2-.88-2-.28.14-1.75-6.6-.49-1.61-.67.87-.68,9.47-2.29,18.58,1.45,27.8,2.6,6.4,5.52,11.61,11.72,15.24,5.46,3.19,13.52,4.55,19.65,2.57,11.89-3.85,23.17-18.14,17.81-31.37-.45-1.11-1.1-5.24-.89-1.44.24,4.35.13-.74.16-1.68.1-2.86.55-5.7.86-8.54a47,47,0,0,0-4.76-27.07c-8.69-16.52-33.34-25.95-49.45-14-5.52,4.09-9.83,8.36-11.72,15.24-1.68,6.11-.92,14.23,2.57,19.65,6.82,10.58,23.43,17.64,34.89,9.15Z" transform="translate(-66.09 -324.93)"/><path class="cls-1" d="M850.42,474.29c-.26-1.62-.51-3.25-.77-4.88-.89-5.78.5,6.1.09.33-.21-2.9-.49-5.78-.47-8.7,0-1.29.13-2.58.15-3.88.12-5.22-1.28,5.39,0,.7a27.32,27.32,0,0,0,1.26-4.46q-2.31,5.1-1,2.46c.34-.74.71-1.45,1.11-2.15.52-.92,2-5,.83-1.62q-1.92,2.37.06.06c1.52-1.45,1.42-1.45-.32,0a10.26,10.26,0,0,1-4.76,2.43l-9.72-.13c-6.67-1.22-10.68-6.48-12.9-12.14,1.57,4-.64-6.73.07-.44.23,2,.46,3.92.67,5.89q.57,5.4,1,10.81c1.14,14.55,1.33,29.09,1.11,43.68-.23,15.25.14,31.19,5.49,45.66,4.61,12.48,17.48,22.3,31.36,17.81,12.23-4,22.76-18,17.81-31.37A83.05,83.05,0,0,1,878,521.46c-.3-2-.2-1.17.33,2.37-.13-1.19-.23-2.38-.32-3.57-.17-2.39-.26-4.78-.31-7.18-.17-8.64.23-17.29.16-25.94q-.12-13.81-1.16-27.6c-.78-10.18-1.06-21.58-3.83-31.37a32.42,32.42,0,0,0-38.51-23.06c-12.15,2.78-21.71,12.27-27.7,22.86-10.71,18.92-8.75,39.36-5.43,59.88,1,5.92,6.77,12.34,11.72,15.24,5.47,3.2,13.52,4.55,19.65,2.57,14.32-4.63,20.1-17.21,17.81-31.37Z" transform="translate(-66.09 -324.93)"/><path class="cls-1" d="M838.45,451.26c13.34,0,26.12-11.73,25.5-25.5s-11.2-25.5-25.5-25.5c-13.34,0-26.12,11.73-25.5,25.5s11.2,25.5,25.5,25.5Z" transform="translate(-66.09 -324.93)"/><path class="cls-1" d="M833.23,401.42A26.76,26.76,0,0,0,810.37,441c4.16,7.87,15.76,10.92,23.26,6.09a17.37,17.37,0,0,0,6.09-23.25l-.31-.6,1.71,4.06a10,10,0,0,1-.7-2.52l.61,4.52a13,13,0,0,1,0-2l-.61,4.52a13.57,13.57,0,0,1,.66-2.58l-1.72,4.07c.22-.52.49-1,.74-1.51.85-1.69,1.63-.37-1.27,1.55a5.23,5.23,0,0,0,1-.92c-2.27,2.69-3.11,2.19-1.21,1.28l-4.06,1.71a12.39,12.39,0,0,1,1.89-.55l-4.52.61a7.37,7.37,0,0,1,1.33-.09c8.88-.23,17.42-7.66,17-17-.4-9-7.47-17.25-17-17Z" transform="translate(-66.09 -324.93)"/><path class="cls-1" d="M837.06,567.9c6.36,12.62,12.69,25.26,18.25,38.25l-3.23-7.64c6.75,16,12.25,32.53,14.72,49.78l-1.14-8.51a131,131,0,0,1,.2,33.74L867,665a103.92,103.92,0,0,1-6.52,24.53l3.23-7.64a87,87,0,0,1-10.1,17.74l5-6.48a74.74,74.74,0,0,1-13,13.07l6.47-5a77.23,77.23,0,0,1-16,9.3l7.65-3.23a72.28,72.28,0,0,1-16.25,4.54l8.5-1.15a63,63,0,0,1-15.22.2l8.5,1.14a56.66,56.66,0,0,1-13.42-3.54l7.64,3.23a50.59,50.59,0,0,1-10.55-6.15l6.47,5a43.43,43.43,0,0,1-5.46-5.39l5,6.48a35,35,0,0,1-4-6.66l3.22,7.64a43.78,43.78,0,0,1-2.54-9.69l1.15,8.51a75.83,75.83,0,0,1,.09-17.43l-1.14,8.51a88.67,88.67,0,0,1,6.18-22.31l-3.23,7.64A109.9,109.9,0,0,1,832.27,665l-5,6.47a133.15,133.15,0,0,1,22.94-22.57l-6.48,5c17.77-13.51,37.92-23.1,58.38-31.78l-7.65,3.22c18.22-7.68,36.69-14.8,54.59-23.18a249.74,249.74,0,0,0,49.92-31c6-4.75,9.37-15.35,9.37-22.62,0-7.85-3.48-17.23-9.37-22.63-6.1-5.6-14.1-9.76-22.63-9.37-9,.4-15.61,3.8-22.62,9.37L951,528l6.47-5c-17.78,13.47-37.93,23-58.39,31.71l7.65-3.23c-38.07,16-76.75,30.06-108.38,57.55s-51.93,70.35-44.19,112.58c4.66,25.41,26.57,44,50.63,50.62,21.63,6,43.42,2.32,63.6-6.46,39.2-17,59-57.9,62.2-98.64,3.67-46.91-17.7-90.87-38.22-131.54-7.56-15-29.88-20.45-43.78-11.48C833.23,534,829,551.88,837.06,567.9Z" transform="translate(-66.09 -324.93)"/><path class="cls-1" d="M825.05,538.63a176,176,0,0,1-5.62-24.53c-.17-1.08-.33-2.15-.48-3.23-.08-.6-.08-.62,0-.05-.08-.62-.16-1.24-.23-1.85-.25-2-.46-4-.65-6q-.59-6.29-.87-12.61c-.8-16.91-.19-33.85.5-50.75a8.56,8.56,0,0,0-8.5-8.5,8.67,8.67,0,0,0-8.5,8.5c-1.4,34.61-2.34,70.08,7.95,103.58,1.31,4.25,6,7.38,10.46,5.94,4.28-1.39,7.34-5.91,5.94-10.46Z" transform="translate(-66.09 -324.93)"/><path class="cls-1" d="M821.1,444.8a83.73,83.73,0,0,1,.47-11.53c-.2,1.41.39-1.77.46-2.07.2-.86.43-1.71.71-2.54.1-.3,1.22-2.6.33-1,.41-.76.78-1.53,1.24-2.26.19-.31.39-.62.6-.92q-.9,1.1,0,0c.49-.54,1-1.06,1.51-1.59,1.45-1.51-1.21.64.54-.48.21-.13,2.44-1.42,1.49-.94s1.37-.39,1.67-.47c1.73-.5-1.61-.09.82,0,1.69.05-.06-.2,1.47.14,1.24.28,2.46.61,3.67,1,4.27,1.23,9.45-1.5,10.46-5.94a8.66,8.66,0,0,0-5.94-10.45c-5.39-1.56-11.27-2.54-16.71-.6a27.28,27.28,0,0,0-12.59,9.37c-6.67,8.64-7.23,19.83-7.23,30.32,0,4.44,3.91,8.7,8.5,8.5a8.65,8.65,0,0,0,8.5-8.5Z" transform="translate(-66.09 -324.93)"/></svg>